<?xml version="1.0" encoding="UTF-8"?>
<svg version="1.1" xmlns="http://www.w3.org/2000/svg" width="5943" height="3244">
<path d="M0 0 C0.00055616 1.2983757 0.00111233 2.5967514 0.00168534 3.93447182 C0.02074458 48.39332644 0.04024522 92.85218087 0.06005859 137.31103516 C0.06045773 138.20673792 0.06085687 139.10244068 0.0612681 140.02528594 C0.10406011 236.0274693 0.14975861 332.02965076 0.20132446 428.03182983 C0.20246954 430.16503624 0.20361461 432.29824264 0.20475969 434.43144904 C0.22880551 479.21102312 0.25325958 523.99059696 0.27818505 568.77017055 C0.29070608 591.26545604 0.30314868 613.76074157 0.31551713 636.25602714 C0.31738328 639.64929131 0.31925167 643.04255548 0.32112016 646.43581965 C0.34986205 698.66837325 0.3769252 750.90092705 0.39910889 803.13348389 C0.39958565 804.25596751 0.40006241 805.37845114 0.40055362 806.53494942 C0.40822989 824.63194837 0.41576488 842.72894738 0.42328111 860.8259464 C0.4449404 912.97035301 0.4676497 965.11475821 0.49726295 1017.259161 C0.49787182 1018.33217135 0.49848068 1019.40518171 0.499108 1020.51070754 C0.51249492 1044.06967302 0.52641878 1067.62863816 0.54085055 1091.18760303 C0.54664855 1100.6678988 0.5523693 1110.14819462 0.55806351 1119.62849045 C0.55868856 1120.66604744 0.55931362 1121.70360442 0.55995762 1122.77260253 C0.58003638 1156.16582685 0.59383515 1189.55905012 0.60431816 1222.95227872 C0.61491283 1256.60920049 0.63171126 1290.26611305 0.65705032 1323.92302712 C0.66055591 1328.581419 0.66399087 1333.23981093 0.66738319 1337.8982029 C0.6680507 1338.8113249 0.66871821 1339.7244469 0.66940594 1340.66523927 C0.67976348 1355.08365811 0.68347995 1369.5020706 0.68437787 1383.92049282 C0.68540039 1398.12273447 0.69356534 1412.32495748 0.70915592 1426.52719076 C0.71806758 1434.83737783 0.72166733 1443.14752422 0.71708247 1451.45771506 C0.71428077 1457.65468523 0.72201368 1463.85160287 0.73358065 1470.04856195 C0.73662666 1472.51984577 0.73644351 1474.99113657 0.73239125 1477.46241894 C0.69812314 1500.44306578 1.14666389 1523.89344069 5.25 1546.5625 C5.46470947 1547.79371582 5.67941895 1549.02493164 5.90063477 1550.29345703 C7.86413996 1561.09801193 10.51884868 1571.58796842 14 1582 C14.23831543 1582.71784668 14.47663086 1583.43569336 14.72216797 1584.17529297 C23.01871296 1608.6891064 36.30938146 1629.86889343 54.91015625 1647.8828125 C57 1650 57 1650 57 1651 C-50.58 1651 -158.16 1651 -269 1651 C-269.99 1589.125 -269.99 1589.125 -271 1526 C-271.33 1516.76 -271.66 1507.52 -272 1498 C-273.711875 1500.92875 -275.42375 1503.8575 -277.1875 1506.875 C-283.22116939 1517.02910188 -289.90079135 1526.56963929 -297 1536 C-297.45117188 1536.60424805 -297.90234375 1537.20849609 -298.3671875 1537.83105469 C-315.55088161 1560.80773659 -335.25846487 1583.40932539 -358 1601 C-359.12510943 1601.92248149 -360.24731668 1602.84850971 -361.3671875 1603.77734375 C-408.54246685 1642.70218104 -470.38477316 1667.91373434 -531.9140625 1668.203125 C-533.42101936 1668.21371445 -533.42101936 1668.21371445 -534.9584198 1668.22451782 C-576.48784152 1668.4501809 -576.48784152 1668.4501809 -595 1665 C-596.05106934 1664.81727539 -597.10213867 1664.63455078 -598.18505859 1664.44628906 C-638.5165348 1657.3030961 -678.50273904 1641.73677316 -712 1618 C-713.14951216 1617.20019387 -714.2992639 1616.400732 -715.44921875 1615.6015625 C-722.90972137 1610.38123523 -730.03637735 1604.87281742 -737 1599 C-738.45986328 1597.81857422 -738.45986328 1597.81857422 -739.94921875 1596.61328125 C-748.18983593 1589.85940611 -755.76760963 1582.44748903 -763.3125 1574.9375 C-764.08018204 1574.17758255 -764.08018204 1574.17758255 -764.8633728 1573.40231323 C-771.71535112 1566.60501117 -777.98908737 1559.56603355 -784 1552 C-785.0841881 1550.69428942 -786.17229334 1549.39181388 -787.265625 1548.09375 C-795.53825579 1538.17447304 -802.91532242 1527.79412856 -810 1517 C-810.74781738 1515.86570557 -810.74781738 1515.86570557 -811.51074219 1514.70849609 C-858.66200184 1442.80049399 -883.86409355 1359.79424811 -892.08154297 966.515625 C-880.34968393 910.26400286 -863.17529265 855.72421369 -838 804 C-837.50290527 802.96488281 -837.00581055 801.92976563 -836.49365234 800.86328125 C-829.08041416 785.44569989 -820.80994842 770.6589632 -812 756 C-811.50081055 755.16178711 -811.00162109 754.32357422 -810.48730469 753.45996094 C-797.652145 731.9105415 -783.22048678 711.14878704 -767 692 C-766.10765282 690.93394525 -765.21574952 689.86751885 -764.32421875 688.80078125 C-758.68565649 682.07354199 -752.91913539 675.48286257 -747 669 C-746.15953125 668.06671875 -745.3190625 667.1334375 -744.453125 666.171875 C-735.76477723 656.55518322 -726.82776921 647.04881463 -716.93359375 638.65625 C-714.69663065 636.74014423 -712.54196422 634.74487144 -710.375 632.75 C-704.78477049 627.71283734 -698.91059495 623.09487658 -692.95214844 618.50634766 C-690.91253071 616.93250556 -688.8819441 615.34745338 -686.8515625 613.76171875 C-620.33879185 562.04226629 -537.43949447 531.02492792 -453 529 C-452.11376953 528.97808594 -451.22753906 528.95617187 -450.31445312 528.93359375 C-392.29531223 527.7323693 -336.63740718 539.58439392 -289.21923828 574.19091797 C-288.23883575 574.90585419 -287.25843323 575.62079041 -286.24832153 576.35739136 C-285.13540237 577.17048264 -285.13540237 577.17048264 -284 578 C-284.05907027 532.97161944 -284.13376501 487.94328782 -284.22898628 442.91496844 C-284.24025246 437.5811706 -284.25139123 432.24737249 -284.26245117 426.91357422 C-284.2657567 425.32099192 -284.2657567 425.32099192 -284.269129 423.69623624 C-284.30435963 406.57645136 -284.32930372 389.45666652 -284.35034702 372.336859 C-284.37222318 354.72881292 -284.40538379 337.12081327 -284.44870156 319.51280677 C-284.47501646 308.67552607 -284.49285956 297.83830305 -284.49934604 287.00099204 C-284.50466243 279.53737821 -284.52108394 272.07383653 -284.54566566 264.61026157 C-284.55947057 260.32460062 -284.56893267 256.03906813 -284.56500816 251.75338364 C-284.55286775 234.97366824 -284.89232882 218.33203547 -286.38639832 201.61105347 C-286.44778605 200.92077144 -286.50917379 200.23048941 -286.57242177 199.51928975 C-290.73854327 153.80086151 -302.74064197 104.51780366 -334.9921875 70.18359375 C-337.11548135 67.87440842 -339.06530073 65.46825983 -341 63 C-332.11196392 60.64691461 -323.1787876 58.81661617 -314.13720703 57.16625977 C-312.67138643 56.89576188 -311.20562877 56.62492276 -309.73992825 56.35377502 C-306.58015708 55.76998606 -303.41995869 55.18858904 -300.25940132 54.60907173 C-295.13657476 53.66972767 -290.01476545 52.72491263 -284.89305115 51.77952576 C-277.49732382 50.41495906 -270.10114206 49.05288103 -262.70462036 47.69262695 C-244.14657263 44.27961886 -225.59044264 40.85620739 -207.03440881 37.43226957 C-204.02412811 36.87687155 -201.01381695 36.3216389 -198.00349998 35.76643753 C-170.01151177 30.60332551 -142.02715191 25.4008389 -114.05060005 20.15473437 C-110.51155733 19.49118606 -106.97243437 18.82806633 -103.4333117 18.16494459 C-88.37494348 15.34336553 -73.31691927 12.52001187 -58.26140231 9.68325359 C-52.09441188 8.5215205 -45.92673353 7.36348975 -39.75851423 6.20829934 C-35.54404402 5.41878949 -31.33046269 4.62475831 -27.11754799 3.82699198 C-23.98095334 3.23448005 -20.84304428 2.6490077 -17.70532227 2.0625 C-16.59568178 1.85088006 -15.4860413 1.63926012 -14.34277534 1.42122746 C-13.32280905 1.23194896 -12.30284275 1.04267046 -11.25196838 0.84765625 C-10.37604318 0.68273682 -9.50011797 0.51781738 -8.59764957 0.34790039 C-5.70679432 -0.03926872 -2.91371877 -0.02232668 0 0 Z M-518.56347656 648.61474609 C-519.95149513 649.95322627 -521.36213319 651.26812681 -522.7734375 652.58203125 C-584.20431147 711.28459993 -601.12022307 815.31047814 -612.06099319 953.60719872 C-612.15641981 959.67540839 -612.16551818 965.74365694 -612.16796875 971.8125 C-612.17120372 973.75976584 -612.1745692 975.70703147 -612.17805481 977.65429688 C-612.18398862 981.7182674 -612.18590125 985.78221687 -612.18530273 989.84619141 C-612.18522239 993.90580795 -612.19202683 997.96530944 -612.20581055 1002.02490234 C-612.3317808 1039.77411519 -611.22522045 1077.42655883 -608.1875 1115.0625 C-608.10351959 1116.12500977 -608.01953918 1117.18751953 -607.93301392 1118.28222656 C-601.31213487 1201.58353051 -588.47788677 1286.76626669 -512 1443 C-511.29641357 1443.85585693 -511.29641357 1443.85585693 -510.57861328 1444.72900391 C-485.54556887 1474.99480472 -454.67121975 1497.09367972 -414.7265625 1501.68359375 C-375.10793848 1505.04743919 -336.57400027 1489.46143324 -306.50927734 1464.28027344 C-303.47893527 1461.70972769 -300.47620133 1459.13673815 -297.60806149 1456.38511783 C-295 1454 -295 1454 -292.17075711 1451.95532626 C-287.25137696 1448.01623444 -283.97179569 1444.68398935 -282.98884428 1438.28169405 C-282.46012561 1432.26429695 -282.57573327 1426.24887699 -282.66374207 1420.21516418 C-282.65750928 1417.87319857 -282.64644736 1415.5312417 -282.63098508 1413.18931884 C-282.60551881 1407.43761176 -282.63104933 1401.68772041 -282.67825269 1395.93618795 C-282.73191522 1389.04236681 -282.72128473 1382.14901895 -282.70852876 1375.25505408 C-282.6868011 1362.52584961 -282.71647279 1349.79724997 -282.77583885 1337.06818581 C-282.83458451 1324.44756959 -282.87125414 1311.82721231 -282.87847328 1299.20645714 C-282.87893917 1298.42025325 -282.87940505 1297.63404937 -282.87988506 1296.82402113 C-282.8821514 1292.8302991 -282.88404786 1288.83657698 -282.88581602 1284.8428547 C-282.89914366 1256.55188744 -282.96495089 1228.26125807 -283.06030273 1199.97045898 C-283.15259044 1172.569414 -283.21651264 1145.16852205 -283.24487305 1117.76733398 C-283.24575371 1116.92473287 -283.24663437 1116.08213176 -283.24754172 1115.21399728 C-283.25461602 1108.43362447 -283.2615746 1101.65325153 -283.268325 1094.87287839 C-283.29761171 1065.49319151 -283.34808782 1036.11353686 -283.40449363 1006.73389075 C-283.41355696 1002.00434534 -283.4222835 997.27479946 -283.430733 992.54525292 C-283.46187471 975.1682778 -283.49979696 957.79135488 -283.55835208 940.41444812 C-283.58136502 933.55893049 -283.60161002 926.70344174 -283.61354828 919.84789467 C-283.66539268 871.57294758 -283.66539268 871.57294758 -287.75 823.5 C-287.83270142 822.84019135 -287.91540283 822.18038269 -288.00061035 821.50057983 C-294.91969556 766.69333608 -308.64220662 705.52106563 -346 663 C-346.71671875 662.175 -347.4334375 661.35 -348.171875 660.5 C-350.41291703 657.96530419 -352.69480574 655.47639177 -355 653 C-355.67417969 652.26007812 -356.34835937 651.52015625 -357.04296875 650.7578125 C-377.80087511 628.8704891 -407.04468117 616.4838548 -437 615 C-438.15628906 614.938125 -438.15628906 614.938125 -439.3359375 614.875 C-469.81506943 614.0649234 -497.03143805 627.7659219 -518.56347656 648.61474609 Z " fill="#20E2CF" transform="translate(2996,347)"/>
<path d="M0 0 C3.36623632 1.22715638 6.00364355 2.55737678 8.79296875 4.80078125 C9.49591064 5.35878418 10.19885254 5.91678711 10.9230957 6.49169922 C11.67034912 7.09256348 12.41760254 7.69342773 13.1875 8.3125 C19.29755716 13.14856641 25.46651162 17.85288099 31.8125 22.375 C38.44665375 27.11264161 44.96673888 31.97905327 51.4375 36.9375 C61.20145256 44.41733568 71.07645717 51.73380755 81 59 C91.82942469 66.92949506 102.57861544 74.94653214 113.23388672 83.10888672 C118.76062365 87.32969357 124.34354795 91.45500102 130 95.5 C137.4826135 100.85090968 144.8066131 106.39005949 152.10888672 111.98388672 C160.20076917 118.17494158 168.38997985 124.22618315 176.60888672 130.24707031 C180.80678207 133.32455536 184.99686559 136.41263937 189.1875 139.5 C190.33629639 140.34522217 190.33629639 140.34522217 191.50830078 141.20751953 C196.35864329 144.77893191 201.18749106 148.37776917 206 152 C204.64433606 156.06699182 202.09491641 156.85853983 198.5 158.75 C191.3918308 162.62054419 184.42781576 166.69058381 177.5 170.875 C175.33484445 172.18003436 173.16947193 173.48470881 171.00390625 174.7890625 C170.44280655 175.127099 169.88170685 175.4651355 169.30360413 175.81341553 C162.36625533 179.98922777 155.40178494 184.1193264 148.4375 188.25 C147.07812418 189.05647648 145.71874918 189.86295435 144.359375 190.66943359 C141.61064498 192.30002507 138.8617548 193.93034622 136.11279297 195.56054688 C132.06533071 197.9609769 128.01882953 200.36302303 123.97265625 202.765625 C123.31420212 203.1566037 122.65574799 203.5475824 121.9773407 203.95040894 C118.65493444 205.92327121 115.33266214 207.89635885 112.01049805 209.86962891 C105.97481876 213.45435263 99.93830804 217.03763631 93.89750671 220.61372375 C90.51443719 222.61652543 87.13205927 224.62049288 83.75 226.625 C83.08721039 227.0177713 82.42442078 227.4105426 81.74154663 227.81521606 C71.63517526 233.80749755 61.58534549 239.88783172 51.5567627 246.00918579 C43.27070839 251.06273473 34.91556361 255.96591922 26.46850586 260.74462891 C13.43246854 268.12920496 0.55534822 275.82174566 -12 284 C-10.94425781 284.69222656 -10.94425781 284.69222656 -9.8671875 285.3984375 C3.3137113 294.10540198 15.92446019 303.28549505 28.07128906 313.39599609 C29.30416909 314.4213153 30.54020391 315.44286053 31.78027344 316.45947266 C45.22772099 327.4866865 57.73478901 339.74918821 69 353 C69.50732666 353.59522461 70.01465332 354.19044922 70.53735352 354.80371094 C111.09311428 402.84923159 136.43513207 460.98591928 146 523 C146.16371094 523.99435059 146.32742188 524.98870117 146.49609375 526.01318359 C152.00621896 560.60515766 151.87793456 599.49725757 146 634 C145.69400879 635.83546387 145.69400879 635.83546387 145.38183594 637.70800781 C139.26343816 673.50108012 128.96665372 707.35084958 113 740 C112.33895264 741.35303223 112.33895264 741.35303223 111.66455078 742.73339844 C101.53928104 763.22421129 89.28445079 782.17495884 75 800 C74.19949219 801.01320313 73.39898438 802.02640625 72.57421875 803.0703125 C67.83931601 808.9742232 62.82004669 814.57185259 57.66796875 820.109375 C55.33310178 822.6390991 53.07054953 825.21466778 50.8125 827.8125 C41.20750893 838.50387246 30.29289715 848.13964597 19 857 C17.71044048 858.04235416 16.42142082 859.08537641 15.1328125 860.12890625 C-34.66144445 900.07449871 -94.83319764 925.77848491 -157 939 C-158.64645508 939.35118896 -158.64645508 939.35118896 -160.32617188 939.70947266 C-188.55768991 945.60013592 -217.72952765 949.10252127 -246.57421875 949.203125 C-247.93883801 949.21014702 -249.30345694 949.21723384 -250.66807556 949.22438049 C-255.00788849 949.24379012 -259.34764805 949.24881479 -263.6875 949.25 C-264.42669426 949.25044186 -265.16588852 949.25088371 -265.9274826 949.25133896 C-288.41048486 949.25838869 -310.6790844 948.98690653 -333 946 C-333.99927521 945.8691803 -333.99927521 945.8691803 -335.01873779 945.73571777 C-353.9239596 943.25365859 -372.50292037 939.64109417 -391 935 C-395.49965709 941.82457462 -399.58496391 948.66297344 -403.0625 956.0625 C-403.48805176 956.96661621 -403.91360352 957.87073242 -404.35205078 958.80224609 C-412.25107378 975.94231538 -418.19015015 995.02134473 -419 1014 C-419.03996094 1014.70511719 -419.07992187 1015.41023438 -419.12109375 1016.13671875 C-419.5781224 1031.11112816 -415.60318134 1045.7602604 -405.2578125 1056.87109375 C-352.82550592 1105.7136366 -232.52749821 1101.62563069 -164.70217896 1109.19699097 C-93.35979833 1117.17550039 -21.85753487 1129.23406933 44 1159 C44.92167969 1159.41072754 45.84335937 1159.82145508 46.79296875 1160.24462891 C76.99572465 1173.7715847 105.11359421 1192.0456409 129 1215 C129.59458008 1215.56734863 130.18916016 1216.13469727 130.80175781 1216.71923828 C139.16443253 1224.73903902 146.85631526 1232.96996827 153.74121094 1242.296875 C154.97069396 1243.96034931 156.22216212 1245.60527552 157.4765625 1247.25 C193.97031814 1295.87698883 206.21336687 1357.91320164 206.25 1417.5625 C206.25101212 1419.05108017 206.25101212 1419.05108017 206.25204468 1420.56973267 C206.17336086 1493.74935952 182.38338617 1571.53091606 131.16015625 1625.69921875 C129.36318427 1627.61317264 127.65621009 1629.56184002 125.94921875 1631.5546875 C121.59148663 1636.55228915 116.93638987 1641.24967744 112.24951172 1645.93579102 C110.76106763 1647.42641615 109.28082723 1648.92487017 107.80078125 1650.42382812 C101.52838207 1656.73303922 94.98470389 1662.47407414 88 1668 C86.78022258 1669.00107454 85.56245095 1670.00460355 84.34765625 1671.01171875 C60.84447554 1690.25312085 35.06895264 1705.36323633 8 1719 C7.10829102 1719.45584473 6.21658203 1719.91168945 5.29785156 1720.38134766 C-61.32293682 1754.30204588 -137.40149529 1769.70885422 -211.4375 1775.75 C-212.16026123 1775.80925659 -212.88302246 1775.86851318 -213.62768555 1775.92956543 C-234.72858173 1777.625238 -255.83570362 1778.20880991 -277 1778.1875 C-278.12484802 1778.18689575 -279.24969604 1778.1862915 -280.40863037 1778.18566895 C-372.24712237 1778.05305018 -463.41771598 1763.43383936 -743 1658 C-743.09691993 1656.45700744 -743.12371682 1654.9095654 -743.12304783 1653.36353207 C-743.1260344 1651.85049351 -743.1260344 1651.85049351 -743.12908131 1650.30688852 C-743.12471205 1648.6245317 -743.12471205 1648.6245317 -743.12025452 1646.90818787 C-743.12110894 1645.72718681 -743.12196337 1644.54618575 -743.12284368 1643.32939678 C-743.12421187 1640.03657938 -743.12106441 1636.74382068 -743.11606562 1633.45101035 C-743.11176442 1629.90566418 -743.11320731 1626.36031997 -743.1139679 1622.81497192 C-743.11449334 1616.66752628 -743.1113444 1610.52009122 -743.10573006 1604.37264824 C-743.09761783 1595.48437666 -743.09500012 1586.59611021 -743.09374207 1577.70783532 C-743.09155111 1563.28870046 -743.08488984 1548.86957125 -743.07543945 1534.45043945 C-743.06626647 1520.44002307 -743.05918508 1506.42960823 -743.05493164 1492.41918945 C-743.05466892 1491.55621045 -743.05440619 1490.69323146 -743.05413551 1489.80410158 C-743.05283051 1485.47497563 -743.05156679 1481.14584967 -743.05032361 1476.8167237 C-743.03994963 1440.87781079 -743.02151059 1404.93890831 -743 1369 C-703.07 1369 -663.14 1369 -622 1369 C-617.38 1382.53 -612.76 1396.06 -608 1410 C-584.52522951 1470.5280847 -554.19630614 1527.26488254 -510.25 1575.52734375 C-508.65518191 1577.27998238 -507.0730813 1579.04423185 -505.5 1580.81640625 C-501.28872039 1585.53483691 -497.08229531 1590.00680013 -492.23828125 1594.07421875 C-489.93739037 1596.05386832 -487.72935015 1598.11835499 -485.52197266 1600.20117188 C-478.35268982 1606.94323092 -470.85880369 1613.08275943 -463 1619 C-462.34999023 1619.49580566 -461.69998047 1619.99161133 -461.03027344 1620.50244141 C-443.8856668 1633.52724918 -425.37751367 1644.9794398 -405.8671875 1654.1171875 C-403.92999716 1655.03309758 -402.01182033 1655.98225549 -400.09375 1656.9375 C-317.95186178 1697.39381738 -207.21268402 1706.95326574 -119.88671875 1678.0625 C-99.14137672 1670.92027579 -79.38960259 1661.46501647 -62 1648 C-60.57300781 1646.90751953 -60.57300781 1646.90751953 -59.1171875 1645.79296875 C-27.23190232 1620.58451679 -9.13052167 1584.83959815 -3.82446289 1544.82470703 C0.51771791 1506.61483886 -4.95591047 1466.94744965 -29 1436 C-81.67819514 1371.41339026 -187.85242925 1366.57328732 -264.35092545 1358.80471802 C-335.17629043 1351.61183863 -406.73362183 1343.00079942 -475 1322 C-476.7631958 1321.45907715 -476.7631958 1321.45907715 -478.56201172 1320.90722656 C-517.94196269 1308.66595148 -554.91354481 1291.67213465 -585 1263 C-585.71929687 1262.33355469 -586.43859375 1261.66710938 -587.1796875 1260.98046875 C-614.27994174 1235.13183268 -627.03960968 1195.74536874 -628 1159 C-628.02046387 1158.22011719 -628.04092773 1157.44023438 -628.06201172 1156.63671875 C-628.8384123 1121.9874364 -621.66732393 1089.78032645 -608 1058 C-607.54052979 1056.92419678 -607.54052979 1056.92419678 -607.07177734 1055.82666016 C-598.74483487 1036.58606969 -587.49218237 1018.78609649 -575 1002 C-574.3488623 1001.12142334 -574.3488623 1001.12142334 -573.68457031 1000.22509766 C-560.97617363 983.16497866 -546.69426705 967.50675688 -531.66601562 952.48071289 C-529.99578905 950.8082835 -528.33377621 949.12796331 -526.671875 947.44726562 C-520.8147656 941.56034741 -514.87426629 936.03806646 -508.35205078 930.88452148 C-506.10647489 929.08531033 -503.98443095 927.20579452 -501.875 925.25 C-494.14223073 918.27921895 -485.66374741 911.7758316 -477 906 C-477.57741943 905.68885254 -478.15483887 905.37770508 -478.74975586 905.05712891 C-507.15955127 889.72253596 -534.72079555 873.47522024 -559 852 C-560.2684375 850.88044922 -560.2684375 850.88044922 -561.5625 849.73828125 C-564.05859988 847.51019209 -566.53033621 845.25733975 -569 843 C-570.04010258 842.06481269 -571.08048194 841.12993314 -572.12109375 840.1953125 C-579.53192533 833.49938749 -586.41713912 826.50876456 -593 819 C-593.87011719 818.01773438 -594.74023438 817.03546875 -595.63671875 816.0234375 C-614.91519674 793.9550257 -630.03840739 769.20056424 -643 743 C-643.4017041 742.19868652 -643.8034082 741.39737305 -644.21728516 740.57177734 C-662.35305226 704.01433628 -671.65023155 662.46191705 -675 622 C-675.05784668 621.33081543 -675.11569336 620.66163086 -675.17529297 619.97216797 C-680.70869037 553.5221404 -668.41692088 482.91173808 -636.97705078 423.85253906 C-635.94765467 421.90075053 -634.95466013 419.9330681 -633.96484375 417.9609375 C-613.93347366 378.48789727 -582.96804939 340.19132923 -548 313 C-546.12230452 311.39898926 -544.24745955 309.79463127 -542.375 308.1875 C-534.92232311 301.9753332 -527.01841282 296.45324228 -519 291 C-518.33403809 290.54512207 -517.66807617 290.09024414 -516.98193359 289.62158203 C-453.95986301 246.87278223 -379.3866401 225.15238362 -304 219 C-302.82622803 218.90356201 -301.65245605 218.80712402 -300.44311523 218.70776367 C-288.24065829 217.8233907 -276.04244272 217.800172 -263.8125 217.8125 C-262.15134659 217.81340637 -262.15134659 217.81340637 -260.45663452 217.81433105 C-243.22694948 217.83981623 -226.14881791 218.18315497 -209 220 C-207.80665039 220.12358887 -206.61330078 220.24717773 -205.38378906 220.37451172 C-166.37302621 224.56402999 -127.66276663 232.66826208 -90.86230469 246.39257812 C-89.0095745 247.10336306 -89.0095745 247.10336306 -87 247 C-86.65319183 246.00595909 -86.65319183 246.00595909 -86.29937744 244.99183655 C-73.38997033 207.99185826 -60.45168473 171.00223265 -47.46777344 134.02832031 C-44.14369793 124.56196716 -40.82218998 115.09471337 -37.50073242 105.62744141 C-35.84504984 100.90822376 -34.18894517 96.18915459 -32.5324707 91.47021484 C-28.63867151 80.37677561 -24.74763689 69.28238581 -20.8656311 58.18481445 C-19.26220824 53.6011452 -17.65748722 49.01793073 -16.05248451 44.43481445 C-14.96041077 41.3160543 -13.86930563 38.19696045 -12.77954102 35.07739258 C-4.15782594 10.39783873 -4.15782594 10.39783873 0 0 Z M-304 330 C-304.75925781 330.62648438 -305.51851562 331.25296875 -306.30078125 331.8984375 C-363.06467521 379.93696606 -375.54507925 476.83269476 -381.44580078 546.13330078 C-383.2510081 568.04928152 -384.69191617 590.00794954 -385 612 C-385.01095703 612.76747559 -385.02191406 613.53495117 -385.03320312 614.32568359 C-386.62200107 728.53103338 -386.62200107 728.53103338 -341 830 C-340.36578125 830.79792969 -339.7315625 831.59585938 -339.078125 832.41796875 C-326.46591202 847.55783598 -308.40228346 856.65195296 -289 859 C-263.90920949 860.32728495 -241.12641006 853.75434571 -222.1628418 836.85375977 C-219.73061833 834.6138283 -217.36739047 832.30837927 -215 830 C-214.30648437 829.37996094 -213.61296875 828.75992188 -212.8984375 828.12109375 C-201.93242091 818.03506614 -193.92687249 804.03710317 -187 791 C-186.68111816 790.40993164 -186.36223633 789.81986328 -186.03369141 789.21191406 C-161.2564337 743.10381304 -151.93886077 689.38917401 -146.25 637.875 C-146.14894958 636.97499268 -146.04789917 636.07498535 -145.94378662 635.14770508 C-142.61039958 605.07226005 -141.64335369 575.08913556 -141.68432617 544.85473633 C-141.68895223 541.16873961 -141.68202887 537.48307338 -141.66381836 533.79711914 C-141.35284047 470.1735122 -142.30130789 387.81864195 -186 337 C-186.54011719 336.31550781 -187.08023438 335.63101562 -187.63671875 334.92578125 C-200.14901005 319.50506388 -219.45613784 310.74912313 -238.875 308.25 C-240.24855487 308.14551809 -241.62383819 308.0612219 -243 308 C-243.67675781 307.96003906 -244.35351562 307.92007812 -245.05078125 307.87890625 C-267.01774658 307.19620349 -287.6029379 315.77273339 -304 330 Z " fill="#20E2CF" transform="translate(4740,654)"/>
<path d="M0 0 C0.90621094 0.72445312 1.81242187 1.44890625 2.74609375 2.1953125 C5.51781459 4.44004433 8.26337653 6.71261704 11 9 C11.5161084 9.42974121 12.0322168 9.85948242 12.56396484 10.30224609 C27.88772448 23.10026213 43.13617948 36.67713604 56.13671875 51.859375 C58.28886777 54.33186486 60.51980719 56.72271357 62.75 59.125 C67.97786243 64.86462607 72.74578503 70.89408432 77.47998047 77.04296875 C79.07419144 79.09552177 80.69269801 81.12696636 82.31640625 83.15625 C91.22564598 94.34524021 99.27732066 105.96534409 107 118 C107.55042969 118.85464844 108.10085938 119.70929688 108.66796875 120.58984375 C117.48693578 134.35245975 125.42776718 148.51828099 133 163 C133.49854492 163.94649414 133.99708984 164.89298828 134.51074219 165.86816406 C172.85956895 239.05198309 193.32237448 321.34110104 172.51171875 681.01098633 C160.86870438 718.14810111 146.91312514 754.29108306 129.06298828 788.93164062 C128.31415915 790.38871008 127.57084715 791.84862151 126.83154297 793.31054688 C111.10647443 824.40203119 92.16506333 853.56402538 70.625 880.9375 C70.1722168 881.51322754 69.71943359 882.08895508 69.25292969 882.68212891 C64.31914068 888.91652046 59.18560983 894.97458229 54 901 C53.38640625 901.71542969 52.7728125 902.43085937 52.140625 903.16796875 C50.44378248 905.12741785 48.72574975 907.06597011 47 909 C46.319375 909.7734375 45.63875 910.546875 44.9375 911.34375 C38.30664878 918.73969943 31.32606334 925.78215183 24.3125 932.8125 C23.56685791 933.56202438 23.56685791 933.56202438 22.80615234 934.32669067 C17.05202761 940.10439594 11.22730911 945.73073845 5 951 C3.94376886 951.91248089 2.8877664 952.82522656 1.83203125 953.73828125 C-5.59673442 960.07147216 -13.17019773 966.16774505 -21 972 C-21.66628418 972.49757813 -22.33256836 972.99515625 -23.01904297 973.5078125 C-97.67479666 1029.00835907 -186.79508597 1058.41248705 -339.25390625 1052.25390625 C-362.29821319 1048.65589943 -384.81017258 1043.18489283 -407 1036 C-408.32547852 1035.57533447 -408.32547852 1035.57533447 -409.67773438 1035.14208984 C-458.67864604 1019.27269173 -505.68988711 993.36110471 -545 960 C-546.04367369 959.1294919 -547.08797553 958.25973651 -548.1328125 957.390625 C-559.76706631 947.66214352 -570.79892477 937.38795286 -581.51928711 926.66601562 C-583.1917165 924.99578905 -584.87203669 923.33377621 -586.55273438 921.671875 C-592.43965259 915.8147656 -597.96193354 909.87426629 -603.11547852 903.35205078 C-604.91469444 901.10646894 -606.7946314 898.98482583 -608.75 896.875 C-614.9565063 889.95566723 -620.44695027 882.44476542 -626 875 C-626.54881836 874.26539551 -627.09763672 873.53079102 -627.66308594 872.77392578 C-636.02334815 861.53158627 -643.74120675 849.98176353 -651 838 C-651.54237305 837.10603516 -652.08474609 836.21207031 -652.64355469 835.29101562 C-696.48187198 762.58973236 -723.23499917 681.08612475 -740.203125 518.33984375 C-740.21010689 516.79117304 -740.21714782 515.24250259 -740.22424316 513.6938324 C-740.24350397 508.77505125 -740.24841882 503.85631476 -740.25 498.9375 C-740.25058914 498.0997126 -740.25117828 497.2619252 -740.25178528 496.39875031 C-740.26413209 471.5241691 -739.98637945 446.81496859 -737.22784424 422.06585693 C-736.99612923 419.96490381 -736.77747452 417.86293195 -736.56201172 415.76025391 C-728.52794197 337.96378099 -707.78059337 261.57673828 -674 191 C-673.44328613 189.83597656 -672.88657227 188.67195313 -672.31298828 187.47265625 C-655.76260367 153.02855174 -635.93485183 119.7977689 -612.31933594 89.68408203 C-610.9635959 87.95353155 -609.62543632 86.21038012 -608.2890625 84.46484375 C-601.5270509 75.68343528 -594.36038144 67.2836027 -587 59 C-586.13761719 58.02417969 -585.27523437 57.04835938 -584.38671875 56.04296875 C-577.26111103 48.15729621 -569.75302722 40.64892173 -562.25 33.125 C-561.70629761 32.57861877 -561.16259521 32.03223755 -560.60241699 31.46929932 C-554.58287101 25.42728726 -548.51713201 19.51061792 -542 14 C-541.03578125 13.154375 -540.0715625 12.30875 -539.078125 11.4375 C-515.92603636 -8.51678635 -490.24595494 -26.08146359 -463.40283203 -40.69140625 C-461.08117462 -41.95579192 -458.77299358 -43.24242009 -456.46484375 -44.53125 C-410.10726752 -70.05480764 -355.64621146 -85.82507702 -303 -90 C-301.97398682 -90.08540039 -300.94797363 -90.17080078 -299.89086914 -90.25878906 C-212.25994334 -96.89488279 -123.1174088 -77.48295755 0 0 Z M-332.3125 31.0625 C-336.92796018 36.10730532 -341.02305754 41.4497791 -345 47 C-345.59264648 47.81815186 -345.59264648 47.81815186 -346.19726562 48.65283203 C-365.73974015 75.89555327 -378.41912444 107.40541849 -389 139 C-389.37866211 140.12792969 -389.75732422 141.25585938 -390.14746094 142.41796875 C-416.66406196 222.35873644 -426.54821598 307.31938887 -432 391 C-432.09248016 392.38478546 -432.09248016 392.38478546 -432.18682861 393.79754639 C-436.01383962 451.47729518 -436.18506441 510.67057224 -432.18359375 568.33898926 C-431.98571585 571.20703474 -431.79729864 574.07562177 -431.609375 576.94433594 C-427.54408095 638.17992494 -419.74837578 699.14929651 -406 759 C-405.76310455 760.03719177 -405.76310455 760.03719177 -405.52142334 761.09533691 C-393.37067975 814.15353167 -376.48714937 871.70777311 -344 916 C-343.39575195 916.83313721 -343.39575195 916.83313721 -342.77929688 917.68310547 C-327.14873444 939.09152637 -307.4171647 959.42909732 -280.62109375 965.4921875 C-258.49189848 968.59552664 -239.27834999 963.566704 -220.97265625 950.90625 C-218.18775528 948.7143162 -215.58968597 946.41974937 -213 944 C-212.45778809 943.49871582 -211.91557617 942.99743164 -211.35693359 942.48095703 C-197.09393287 929.18022176 -186.69570143 913.83331189 -177 897 C-176.37593262 895.91887939 -176.37593262 895.91887939 -175.73925781 894.81591797 C-156.3654719 860.77735913 -144.59473439 821.78816777 -135 784 C-134.56228271 782.28393555 -134.56228271 782.28393555 -134.11572266 780.53320312 C-111.41492492 690.33637739 -103.81964918 595.39368008 -103.73925781 489.79492188 C-103.75066568 484.44045406 -103.74384267 479.08618492 -103.73238087 473.73172379 C-103.66561565 436.91693969 -104.79018183 400.19946759 -107.8125 363.5 C-107.89648041 362.45800446 -107.98046082 361.41600891 -108.06698608 360.34243774 C-115.93208057 263.23831625 -130.66046419 160.63721344 -196 43 C-196.76957031 41.98679687 -197.53914063 40.97359375 -198.33203125 39.9296875 C-214.32734117 19.69778199 -234.66716535 3.28027551 -260.8828125 -0.5703125 C-289.22622733 -3.55584673 -313.12507482 11.43899698 -332.3125 31.0625 Z " fill="#20E2CF" transform="translate(5740,963)"/>
<path d="M0 0 C1.1932489 0.00060425 2.3864978 0.0012085 3.61590576 0.00183105 C23.16967956 0.02863451 42.58265286 0.43388235 62.0625 2.1875 C62.77160522 2.25066406 63.48071045 2.31382812 64.21130371 2.37890625 C117.58278022 7.19091938 170.47918166 17.88270239 219.0625 41.1875 C219.97821777 41.62674805 220.89393555 42.06599609 221.83740234 42.51855469 C255.40803946 58.8646256 286.92686512 82.73405714 310.0625 112.1875 C310.6915625 112.93773437 311.320625 113.68796875 311.96875 114.4609375 C377.37743977 193.0049789 382.33447623 300.50977534 382.29772279 413.79431091 C382.28705933 423.2700963 382.28840514 432.74587177 382.28999493 442.22166169 C382.29260522 459.70046836 382.28600715 477.17925975 382.27396011 494.65806198 C382.26208167 511.93697562 382.25441931 529.21588288 382.25225449 546.49480057 C382.25211701 547.57353895 382.25197953 548.65227733 382.25183788 549.76370476 C382.25116111 555.24319935 382.25055838 560.72269396 382.24998413 566.20218857 C382.24579547 604.90351414 382.23235493 643.60483143 382.21337891 682.30615234 C382.19497789 719.87841752 382.18082647 757.45068043 382.17236328 795.02294922 C382.17210023 796.18331484 382.17183718 797.34368045 382.17156615 798.53920866 C382.16892887 810.19323504 382.16637727 821.84726143 382.16388843 833.50128783 C382.15881749 857.23691214 382.15317499 880.9725363 382.14718628 904.7081604 C382.1469117 905.79922474 382.14663712 906.89028908 382.14635422 908.01441598 C382.13791657 941.42256534 382.12705893 974.83071329 382.11380005 1008.23886108 C382.11342493 1009.18641408 382.11304982 1010.13396708 382.11266333 1011.1102338 C382.09744099 1049.46932318 382.07964756 1087.82841145 382.0625 1126.1875 C292.3025 1126.1875 202.5425 1126.1875 110.0625 1126.1875 C109.4025 1088.5675 108.7425 1050.9475 108.0625 1012.1875 C107.7325 1008.5575 107.4025 1004.9275 107.0625 1001.1875 C106.52882813 1002.49460937 105.99515625 1003.80171875 105.4453125 1005.1484375 C95.70910674 1028.64641691 83.64803846 1049.67478025 66.0625 1068.1875 C64.93111934 1069.51542341 63.8056487 1070.84841589 62.6875 1072.1875 C48.85496569 1087.97777118 31.12006781 1099.79459766 13.0625 1110.1875 C12.38670898 1110.5803418 11.71091797 1110.97318359 11.01464844 1111.37792969 C-30.61229673 1135.325162 -80.36846166 1144.98651439 -127.9375 1146.1875 C-129.04955811 1146.22037109 -129.04955811 1146.22037109 -130.18408203 1146.25390625 C-196.74884297 1148.00599472 -265.00120166 1129.03086011 -314.6328125 1083.3046875 C-316.92598406 1081.19807905 -319.27041729 1079.16246719 -321.625 1077.125 C-325.02754498 1074.09655683 -328.09009403 1070.95457918 -331.01953125 1067.46875 C-332.42468242 1065.79745003 -333.86485111 1064.15542348 -335.32421875 1062.53125 C-389.67608659 1001.48041057 -403.92423468 913.88282147 -399.47290039 834.82666016 C-396.5436799 791.93106547 -386.09606953 750.16943286 -367.9375 711.1875 C-367.51629883 710.27790527 -367.09509766 709.36831055 -366.66113281 708.43115234 C-356.53619682 686.7928724 -343.94456922 666.7632606 -328.9375 648.1875 C-328.10644755 647.14348642 -327.27569603 646.0992332 -326.4453125 645.0546875 C-322.14473921 639.71245285 -317.65707527 634.56978319 -313.03515625 629.50390625 C-311.23158387 627.51225183 -309.48643904 625.48728143 -307.75 623.4375 C-299.86452896 614.3913171 -291.13120199 605.89220318 -281.9375 598.1875 C-281.05707031 597.41792969 -280.17664062 596.64835937 -279.26953125 595.85546875 C-215.65684955 540.50484912 -135.25736822 505.90651101 60.1875 460.25 C61.17765106 460.10038818 62.16780212 459.95077637 63.18795776 459.79663086 C66.04346803 459.36815397 68.90023834 458.94962467 71.7578125 458.53515625 C72.98850716 458.35135155 72.98850716 458.35135155 74.24406433 458.16383362 C79.45053989 457.42655984 84.65123212 456.98016375 89.8979187 456.6481781 C90.58913535 456.60332134 91.280352 456.55846457 91.99251461 456.51224852 C93.68242981 456.40275823 95.37245423 456.29495605 97.0625 456.1875 C97.00171369 427.85619529 96.92403864 399.52497919 96.82678509 371.19377518 C96.7820037 358.03625545 96.74254934 344.87876173 96.71606445 331.72119141 C96.6929403 320.24016459 96.65938439 308.75922131 96.61379844 297.27826095 C96.59005873 291.21090864 96.57120489 285.14363807 96.56488609 279.07624054 C96.51026399 232.80040023 95.8803478 184.50325676 72.0625 143.1875 C71.54284668 142.28016113 71.54284668 142.28016113 71.01269531 141.35449219 C65.72749218 132.28792689 59.47334529 124.59834529 52.0625 117.1875 C51.39605469 116.52105469 50.72960938 115.85460937 50.04296875 115.16796875 C33.78935268 100.00933313 10.08666178 91.95500867 -11.9375 91.1875 C-12.82953125 91.14753906 -13.7215625 91.10757813 -14.640625 91.06640625 C-52.05526256 90.19748707 -87.19385197 105.36429965 -114.3203125 130.6640625 C-115.18398437 131.49679687 -116.04765625 132.32953125 -116.9375 133.1875 C-117.49791992 133.72213867 -118.05833984 134.25677734 -118.63574219 134.80761719 C-127.58002913 143.37550068 -135.58391532 152.22978774 -142.9375 162.1875 C-143.44490723 162.86119629 -143.95231445 163.53489258 -144.47509766 164.22900391 C-153.14442839 175.74332923 -160.75975737 187.69563804 -167.9375 200.1875 C-168.35563965 200.90808594 -168.7737793 201.62867188 -169.20458984 202.37109375 C-199.89291278 255.42422668 -220.44064158 313.69111332 -239.375 371.75 C-239.66246094 372.63076202 -239.94992188 373.51152405 -240.24609375 374.41897583 C-243.66370684 384.91285426 -246.96294859 395.43239888 -250.05039978 406.02870178 C-251.83172711 412.08172711 -251.83172711 412.08172711 -252.9375 413.1875 C-254.48103131 413.28334998 -256.02895108 413.3093807 -257.57545471 413.30775452 C-258.57811371 413.30912918 -259.58077271 413.31050385 -260.61381531 413.31192017 C-262.27752922 413.30652725 -262.27752922 413.30652725 -263.97485352 413.30102539 C-265.13567444 413.30117142 -266.29649536 413.30131744 -267.49249268 413.3014679 C-271.35048252 413.30076817 -275.20842478 413.29297298 -279.06640625 413.28515625 C-281.73298728 413.28329228 -284.39956564 413.28181912 -287.06614685 413.28086853 C-293.3807888 413.27775548 -299.69541351 413.26954244 -306.01004785 413.25951904 C-313.19735633 413.2483571 -320.38466561 413.24284725 -327.5719806 413.23782361 C-342.36049589 413.2273598 -357.14899765 413.20976086 -371.9375 413.1875 C-372.19320251 378.89377156 -372.44807902 344.60003708 -372.70186454 310.3062944 C-372.73190119 306.24757187 -372.7619446 302.1888494 -372.79199219 298.13012695 C-372.79797342 297.32218825 -372.80395465 296.51424956 -372.81011713 295.68182787 C-372.90668212 282.64009458 -373.00379355 269.59836543 -373.10111082 256.55663774 C-373.20112975 243.15120348 -373.30055242 229.74576489 -373.39943409 216.3403222 C-373.46035203 208.08413961 -373.52172209 199.82796065 -373.58369088 191.57178589 C-373.62627608 185.89214307 -373.66827644 180.2124961 -373.70983958 174.53284571 C-373.73375137 171.26753638 -373.7579866 168.00223004 -373.78274918 164.73692703 C-373.79193249 163.52413448 -373.8011158 162.31134193 -373.81057739 161.0617981 C-373.81959579 159.88464843 -373.8286142 158.70749877 -373.83790588 157.4946779 C-373.8534211 155.22921403 -373.86602681 152.96372795 -373.87541199 150.69823039 C-373.89725676 145.45914084 -373.95365688 140.22656589 -374.09811401 134.98930931 C-374.11766868 134.01973044 -374.13722334 133.05015156 -374.15737057 132.05119151 C-374.19425911 130.25405572 -374.2473774 128.4571437 -374.32042027 126.66111404 C-374.3850525 122.64656627 -374.37012646 120.79602498 -371.98512268 117.44131947 C-369.73403194 115.66178448 -367.4811568 114.38106029 -364.88964844 113.15869141 C-361.76337637 111.60337496 -358.84366763 109.72215008 -355.87548828 107.88745117 C-352.4154191 105.76124558 -348.91465476 103.70699474 -345.4140625 101.6484375 C-343.19577509 100.33985786 -340.98666517 99.01761421 -338.78125 97.6875 C-306.59519221 78.35604632 -272.77115042 62.11844659 -237.9375 48.1875 C-236.16439453 47.4766626 -236.16439453 47.4766626 -234.35546875 46.75146484 C-173.43917014 22.53571154 -108.47110249 5.75741202 -42.9375 1.1875 C-41.22953247 1.05831177 -41.22953247 1.05831177 -39.48706055 0.92651367 C-26.33426933 -0.00350878 -13.18029718 -0.01233704 0 0 Z M-30.9375 586.1875 C-31.53208008 586.75484863 -32.12666016 587.32219727 -32.73925781 587.90673828 C-50.56056569 604.99736335 -64.45938799 624.35235027 -75.9375 646.1875 C-76.57341064 647.38415283 -76.57341064 647.38415283 -77.22216797 648.60498047 C-90.27430023 673.48367028 -98.62457888 700.66092033 -103.9375 728.1875 C-104.12892578 729.16428711 -104.32035156 730.14107422 -104.51757812 731.14746094 C-119.2141979 808.18949737 -120.41248294 916.87148582 -74.9375 984.1875 C-72.43568077 987.69004693 -69.8002792 990.97428644 -66.9375 994.1875 C-66.20144531 995.01765625 -65.46539063 995.8478125 -64.70703125 996.703125 C-51.59398506 1010.6504433 -33.977836 1019.68631306 -14.67578125 1020.5234375 C10.8073443 1020.95102232 31.24659868 1012.25959101 49.75 994.875 C88.86299337 953.44419961 97.6227115 893.50349919 97.41069686 838.89642167 C97.39754003 834.63095633 97.40213958 830.36550133 97.40440369 826.10002136 C97.40596422 818.73884773 97.39668415 811.37775488 97.37969017 804.01660156 C97.35513705 793.37408875 97.34747838 782.73161434 97.3437262 772.08907628 C97.33718705 754.81538427 97.31729537 737.54173517 97.28881836 720.26806641 C97.26121168 703.50472221 97.2400106 686.74138973 97.22729492 669.97802734 C97.22650675 668.94187125 97.22571858 667.90571516 97.22490653 666.8381604 C97.22099095 661.63921483 97.21719993 656.44026918 97.21347082 651.24132347 C97.18245405 608.22335263 97.12968813 565.20542855 97.0625 522.1875 C53.01552379 522.1875 -0.49356543 556.93148665 -30.9375 586.1875 Z " fill="#20E2CF" transform="translate(3549.9375,871.8125)"/>
<path d="M0 0 C2.89993954 -0.00907063 5.79943207 -0.03049987 8.69921875 -0.06152344 C12.28935378 -0.0998901 15.87908321 -0.11874656 19.46941566 -0.12328148 C21.45757932 -0.13043536 23.44564451 -0.15680535 25.43363953 -0.18367004 C26.63132462 -0.18074448 27.8290097 -0.17781891 29.06298828 -0.17480469 C30.11008469 -0.18067093 31.15718109 -0.18653717 32.23600769 -0.19258118 C35.82195282 0.42034272 37.49019335 1.80303782 40.08959961 4.29516602 C43.85271644 11.82139968 39.37931334 22.22048621 37.43725586 29.86938477 C37.03459384 31.48472224 36.63279159 33.10027423 36.23176575 34.71601868 C35.35230991 38.2516795 34.46692651 41.7857859 33.5770874 45.31884766 C32.11437731 51.12698851 30.66486636 56.93837774 29.21704102 62.75024414 C27.33310605 70.30896168 25.44582977 77.86683231 23.55500793 85.42383003 C19.4374284 101.88224467 15.34797258 118.34757902 11.26538086 134.81469727 C10.92607177 136.18320257 10.5867608 137.55170741 10.24744797 138.92021179 C8.86963198 144.47727543 7.49190062 150.03436004 6.11434364 155.59148788 C3.65463422 165.51379764 1.19300387 175.43562952 -1.26977539 185.35717773 C-1.44491897 186.06277061 -1.62006255 186.76836349 -1.80051351 187.49533796 C-2.50835932 190.34699804 -3.21621128 193.1986566 -3.92407095 196.05031323 C-9.75903003 219.55694962 -15.5897364 243.06463502 -21.4133234 266.57409143 C-21.89705585 268.52688408 -22.38080384 270.47967287 -22.86455536 272.43246078 C-25.88397905 284.62130226 -28.902972 296.8102502 -31.92075348 308.99949837 C-38.5496882 335.77334461 -45.2054749 362.54024252 -51.91040039 389.29516602 C-58.52645836 389.58361715 -65.14268306 389.86798908 -71.7590332 390.1496582 C-74.00516639 390.24574601 -76.25126128 390.34273355 -78.49731445 390.44067383 C-81.74428569 390.58209746 -84.99138542 390.72017737 -88.23852539 390.85766602 C-89.72053436 390.92328735 -89.72053436 390.92328735 -91.23248291 390.99023438 C-98.12856729 391.27784248 -105.00871031 391.34309838 -111.91040039 391.29516602 C-112.48987427 389.98418945 -112.48987427 389.98418945 -113.08105469 388.64672852 C-135.52008307 338.01422416 -163.35444768 282.39330328 -217.6628418 260.1472168 C-249.97787818 247.89656755 -286.57262498 250.32848929 -317.91040039 264.29516602 C-348.5496035 278.83516334 -370.55007114 306.54187462 -386.85776743 335.47591458 C-387.59489983 336.74989062 -388.37332423 338.00044763 -389.18097201 339.23092891 C-392.96343327 345.28723285 -393.62276491 350.07741255 -393.53401947 357.12929916 C-393.54068748 358.19129414 -393.54735549 359.25328911 -393.55422556 360.34746575 C-393.57046937 363.90655964 -393.55108302 367.46455462 -393.53186035 371.02362061 C-393.53618934 373.60109909 -393.54270533 376.17857467 -393.55122042 378.75604272 C-393.56618394 384.36060894 -393.56260686 389.96492427 -393.54680252 395.56948471 C-393.52336309 403.90471498 -393.52858984 412.23975656 -393.53951142 420.57500381 C-393.55810014 435.46787606 -393.54838131 450.36062869 -393.52703378 465.25349117 C-393.50846726 478.29905121 -393.50005582 491.34457109 -393.50160217 504.39014435 C-393.50169385 505.25594285 -393.50178552 506.12174136 -393.50187998 507.01377618 C-393.50227316 510.52867134 -393.50272279 514.04356648 -393.50325137 517.55846162 C-393.50812413 550.54473058 -393.4854558 583.53092845 -393.44929514 616.51717531 C-393.41735787 645.77521821 -393.4052424 675.03320029 -393.41137695 704.29125977 C-393.4117638 706.16709009 -393.41215026 708.04292041 -393.41253632 709.91875073 C-393.41272767 710.84615277 -393.41291901 711.77355481 -393.41311616 712.72905995 C-393.41407061 717.39822944 -393.41498497 722.06739894 -393.41585541 726.73656845 C-393.4160292 727.65786791 -393.416203 728.57916736 -393.41638206 729.52838498 C-393.42074834 754.01223931 -393.41069798 778.49608715 -393.39601755 802.97993684 C-393.39549741 803.85230924 -393.39497727 804.72468165 -393.39444136 805.62348958 C-393.39392202 806.49421675 -393.39340268 807.36494393 -393.39286759 808.26205678 C-393.39234985 809.13112972 -393.39183211 810.00020266 -393.39129869 810.89561115 C-393.39025058 812.64578382 -393.38919037 814.39595648 -393.38811797 816.14612914 C-393.38076246 828.30441468 -393.37864459 840.46269093 -393.38011197 852.62097843 C-393.38196626 868.31196877 -393.37374621 884.00290195 -393.34847051 899.69387373 C-393.33540489 907.9751076 -393.33023584 916.25625042 -393.33710905 924.53749229 C-393.3413114 930.75324486 -393.32955808 936.968878 -393.31203347 943.18460515 C-393.30735068 945.67540998 -393.30751924 948.16623052 -393.31344384 950.6570327 C-393.40519315 993.4111197 -387.07839221 1035.71002426 -367.91040039 1074.29516602 C-367.57540527 1074.98143066 -367.24041016 1075.66769531 -366.89526367 1076.37475586 C-360.43937449 1089.50183764 -352.10139671 1100.97988562 -342.62524414 1112.08813477 C-340.91040039 1114.29516602 -340.91040039 1114.29516602 -339.91040039 1117.29516602 C-470.26040039 1117.29516602 -600.61040039 1117.29516602 -734.91040039 1117.29516602 C-733.09046989 1113.65530501 -731.60076811 1111.73676753 -728.84790039 1108.85766602 C-719.94712883 1099.11531509 -713.0524584 1087.93382564 -706.91040039 1076.29516602 C-706.55478027 1075.62340332 -706.19916016 1074.95164062 -705.83276367 1074.25952148 C-688.42978886 1040.82890629 -679.72244418 1001.8173604 -679.77897263 964.19750309 C-679.77691999 962.91510062 -679.77486736 961.63269816 -679.77275252 960.31143501 C-679.76722434 956.76591494 -679.76785117 953.2204192 -679.76953011 949.67489621 C-679.77026468 945.81196033 -679.76523014 941.94903112 -679.7609551 938.08609813 C-679.75339379 930.43047135 -679.75118298 922.77485155 -679.75062604 915.11922142 C-679.74971052 905.94614285 -679.74303732 896.77307069 -679.73627922 887.59999488 C-679.72023448 865.4286691 -679.71431724 843.25734401 -679.70953047 821.08601346 C-679.70719254 810.59007578 -679.70358962 800.09413865 -679.69983509 789.5982014 C-679.68699964 753.64574505 -679.67628147 717.69328901 -679.67283249 681.74083042 C-679.67261086 679.48471765 -679.67238907 677.22860487 -679.67216714 674.9724921 C-679.6719465 672.71102375 -679.67172602 670.4495554 -679.67150569 668.18808705 C-679.67106315 663.65143303 -679.67061603 659.11477902 -679.67016602 654.578125 C-679.67005662 653.45330208 -679.66994723 652.32847917 -679.66983453 651.16957071 C-679.66620644 614.72291916 -679.65029572 578.27628753 -679.62697565 541.82964361 C-679.60234664 503.26650039 -679.58865818 464.70336855 -679.58746457 426.14021724 C-679.58729313 421.90187291 -679.5870777 417.66352858 -679.58683014 413.42518425 C-679.58677437 412.38163868 -679.5867186 411.33809312 -679.58666114 410.26292496 C-679.58551323 393.51066767 -679.57451323 376.75843091 -679.55994308 360.00618053 C-679.54553407 343.14678895 -679.54236583 326.28742351 -679.55038306 309.42802746 C-679.55481895 299.42912898 -679.55106108 289.43031526 -679.53514456 279.43142802 C-679.52532025 272.73109608 -679.52664302 266.03082284 -679.53658078 259.3304913 C-679.54191981 255.52667935 -679.54285818 251.7230289 -679.53007206 247.91923101 C-679.45442333 223.90375199 -680.85892743 200.12969728 -685.66040039 176.54516602 C-685.91716553 175.26134033 -686.17393066 173.97751465 -686.43847656 172.65478516 C-693.80554814 136.56961436 -707.18144977 100.33327466 -733.07446289 73.40454102 C-734.91040039 71.29516602 -734.91040039 71.29516602 -734.91040039 69.29516602 C-662.73041819 55.39633974 -590.53502363 41.57860405 -518.32927376 27.81428325 C-510.86222244 26.39077348 -503.39537806 24.96618162 -495.92861938 23.5411377 C-486.71475971 21.78269445 -477.50060218 20.02582167 -468.28607476 18.27088076 C-463.52680243 17.3644321 -458.76765215 16.45735582 -454.00883484 15.54852104 C-449.5971474 14.70601886 -445.18508188 13.86552496 -440.77272928 13.02651358 C-439.18064899 12.72343981 -437.58869796 12.419686 -435.9969002 12.11513186 C-435.25701589 11.97361177 -434.51713159 11.83209168 -433.75482655 11.68628311 C-433.1188979 11.56441926 -432.48296926 11.44255541 -431.82777005 11.31699872 C-422.20014978 9.50245884 -412.58433636 7.90748868 -402.91040039 6.29516602 C-402.58040039 80.87516602 -402.25040039 155.45516602 -401.91040039 232.29516602 C-396.96040039 217.44516602 -396.96040039 217.44516602 -391.91040039 202.29516602 C-389.89049704 196.88742008 -387.8687039 191.55540459 -385.66040039 186.23266602 C-385.39615265 185.58969574 -385.13190491 184.94672546 -384.85964966 184.28427124 C-370.83834575 150.22693499 -353.47175227 118.44891292 -330.91040039 89.29516602 C-330.17305664 88.34125977 -329.43571289 87.38735352 -328.67602539 86.40454102 C-295.24206744 44.42355622 -248.30303621 14.03624717 -194.36645508 7.72583008 C-182.71347656 6.48751901 -171.08654593 5.85068426 -159.37734985 5.46090698 C-153.85790586 5.27661137 -148.33927361 5.07022948 -142.82055664 4.86547852 C-141.64101913 4.82210861 -140.46148163 4.77873871 -139.24620056 4.73405457 C-129.83896442 4.38229549 -120.43520487 3.97151785 -111.03149414 3.53735352 C-110.3140226 3.50428289 -109.59655106 3.47121227 -108.85733795 3.43713951 C-102.44530979 3.14117634 -96.03340933 2.84253409 -89.62176514 2.5383606 C-59.7506373 1.12209275 -29.90453104 0.08356884 0 0 Z " fill="#20E2CF" transform="translate(2082.910400390625,880.704833984375)"/>
<path d="M0 0 C2.54215642 1.45558367 4.81580413 3.20292297 7.125 5 C7.78169678 5.49693359 8.43839355 5.99386719 9.11499023 6.50585938 C10.45259523 7.51899503 11.78686399 8.53655121 13.11767578 9.55859375 C15.74352542 11.5693611 18.40518387 13.53108925 21.0625 15.5 C37.45573613 27.86067537 52.96300656 41.02015276 68 55 C68.60908203 55.56396484 69.21816406 56.12792969 69.84570312 56.70898438 C88.42066625 73.90802431 88.42066625 73.90802431 95.89453125 82.61328125 C98.10562595 85.11973554 100.37905738 87.55684303 102.66699219 89.99291992 C107.84213166 95.50611525 112.84869493 101.07531047 117.57421875 106.984375 C119.42826579 109.28924507 121.30378311 111.56444265 123.20703125 113.828125 C131.06058155 123.19370625 138.40150147 132.80965657 145.44287109 142.79882812 C146.94509524 144.92238612 148.46381644 147.03299589 149.98828125 149.140625 C200.41415966 219.16961578 235.60451857 300.0481346 298 788 C297.93683594 788.97578003 297.87367188 789.95156006 297.80859375 790.95690918 C291.5667126 885.65986214 274.90319888 979.81770357 213 1145 C212.5678418 1145.92603027 212.13568359 1146.85206055 211.69042969 1147.80615234 C199.09974389 1174.66007099 185.50856834 1200.72037507 170 1226 C169.45214844 1226.89428711 168.90429688 1227.78857422 168.33984375 1228.70996094 C153.9682438 1252.05930848 138.21188172 1274.65349568 121 1296 C120.24203125 1296.94101563 119.4840625 1297.88203125 118.703125 1298.8515625 C116.48468326 1301.5813472 114.24813279 1304.29461986 112 1307 C111.57750977 1307.50885742 111.15501953 1308.01771484 110.71972656 1308.54199219 C104.88944193 1315.54770308 98.9106601 1322.37672894 92.703125 1329.05078125 C90.68273814 1331.23046988 88.73331664 1333.46161801 86.79370117 1335.71337891 C83.21135749 1339.81255446 79.45212721 1343.69290058 75.59765625 1347.53515625 C74.91626083 1348.21750839 74.23486542 1348.89986053 73.53282166 1349.60289001 C72.10294259 1351.03344437 70.67182089 1352.46275767 69.23950195 1353.89086914 C67.06802289 1356.05699074 64.90193675 1358.22840174 62.73632812 1360.40039062 C61.33625798 1361.79979987 59.93587762 1363.19889884 58.53515625 1364.59765625 C57.89844498 1365.23639175 57.2617337 1365.87512726 56.60572815 1366.53321838 C52.23083075 1370.88578196 47.67712079 1374.97593334 43 1379 C41.80870401 1380.04551856 40.61842154 1381.09219447 39.4296875 1382.140625 C31.753533 1388.86981864 23.94335795 1395.35532448 15.84960938 1401.57568359 C13.90916127 1403.06995158 11.97788896 1404.5755964 10.046875 1406.08203125 C-63.94212683 1463.54437038 -152.19510789 1503.19094658 -308.36328125 1523.203125 C-309.02853506 1523.20595238 -309.69378887 1523.20877975 -310.37920189 1523.21169281 C-313.91743719 1523.22657023 -317.4556331 1523.23586512 -320.99389648 1523.24023438 C-323.83908285 1523.24456568 -326.68395681 1523.258263 -329.52905273 1523.28125 C-356.37266643 1523.49333237 -382.86948212 1521.81864657 -409.375 1517.3125 C-410.12795349 1517.18716888 -410.88090698 1517.06183777 -411.65667725 1516.93270874 C-435.10289253 1513.00720759 -458.00476449 1507.48101233 -480.6875 1500.375 C-481.40367493 1500.15115631 -482.11984985 1499.92731262 -482.85772705 1499.69668579 C-511.37721332 1490.71704544 -511.37721332 1490.71704544 -515 1486 C-515.55595912 1483.29651254 -515.43172844 1480.7210253 -515 1478 C-513.45661909 1475.82523599 -512.36334727 1475.18167363 -510 1474 C-507.87727298 1473.81104198 -505.74951436 1473.67755456 -503.62109375 1473.5703125 C-502.31624023 1473.4993335 -501.01138672 1473.42835449 -499.66699219 1473.35522461 C-498.9764978 1473.31831512 -498.28600342 1473.28140564 -497.57458496 1473.24337769 C-449.89860025 1470.6025034 -406.15864603 1450.91307582 -368.80126953 1421.42041016 C-367.01216065 1420.00958941 -365.20943538 1418.61815366 -363.40234375 1417.23046875 C-345.83999908 1403.68320357 -329.64856148 1388.7013109 -313.9375 1373.0625 C-313.24744873 1372.37712158 -312.55739746 1371.69174316 -311.84643555 1370.9855957 C-307.93278728 1367.059567 -304.20438815 1363.02544379 -300.58325195 1358.82836914 C-298.4811358 1356.40080586 -296.30390316 1354.04614433 -294.125 1351.6875 C-289.20375795 1346.28523429 -284.5860094 1340.68694329 -280 1335 C-279.02592134 1333.81673451 -278.05059 1332.63449947 -277.07421875 1331.453125 C-268.36959362 1320.88949565 -260.12247383 1310.01568014 -252 1299 C-251.44844238 1298.25524414 -250.89688477 1297.51048828 -250.32861328 1296.74316406 C-205.80541745 1236.50351024 -168.52716299 1169.51046393 -137.54296875 1101.36669922 C-136.02129672 1098.04646862 -134.46972661 1094.74213378 -132.90625 1091.44140625 C-118.75046934 1061.49386033 -106.007952 1030.866768 -94 1000 C-93.71120972 999.25911133 -93.42241943 998.51822266 -93.12487793 997.75488281 C-69.71371398 937.65737856 -49.21406865 876.60848685 -30.91433716 814.76945496 C-28.52162121 806.70522613 -26.06864868 798.6604485 -23.59375 790.62109375 C10.17838502 680.89512135 38.65988054 569.71928075 66 314 C66.01095703 313.30485291 66.02191406 312.60970581 66.03320312 311.89349365 C67.23769929 231.77899984 61.75746483 145.33741187 24 62 C23.31188232 60.61167969 23.31188232 60.61167969 22.60986328 59.1953125 C13.88650188 41.66230521 4.01603651 23.01603651 -10 9 C-10.375 5.5625 -10.375 5.5625 -10 2 C-6.95477487 -1.74796939 -4.39969791 -1.16769234 0 0 Z " fill="#20E2CF" transform="translate(916,478)"/>
<path d="M0 0 C2 2 2 2 2.375 4.9375 C2 8 2 8 0.56640625 9.63671875 C-3.30270721 11.69200124 -7.11513403 11.6245987 -11.4375 11.875 C-22.6621431 12.75699855 -33.16680098 14.99460092 -44 18 C-45.00691895 18.27585937 -46.01383789 18.55171875 -47.05126953 18.8359375 C-76.22269715 26.95632875 -103.2283568 39.55274782 -128 57 C-129.07894531 57.74378906 -130.15789063 58.48757813 -131.26953125 59.25390625 C-140.55540758 65.71204441 -149.31981736 72.75484756 -158 80 C-158.598125 80.49757813 -159.19625 80.99515625 -159.8125 81.5078125 C-176.4920027 95.43221877 -193.1784692 110.34732886 -207.23828125 126.95703125 C-209.0905631 129.10502106 -211.00806015 131.18571374 -212.93798828 133.26391602 C-217.64970927 138.3414638 -222.16537366 143.51696386 -226.5078125 148.91796875 C-228.37869084 151.23164118 -230.26731879 153.52186579 -232.1796875 155.80078125 C-240.2906587 165.49079835 -247.9230258 175.44711843 -255.32373047 185.68847656 C-256.89217864 187.8513177 -258.47609481 190.00164552 -260.06640625 192.1484375 C-308.57187391 257.96394368 -347.94751084 331.36593042 -381.09362793 405.96588135 C-382.2957969 408.66383994 -383.5090441 411.3567539 -384.72195435 414.04989624 C-412.67844544 476.18136419 -436.03503524 540.16491554 -457.29547119 604.85968018 C-457.97756744 606.93185112 -458.66275569 609.00297014 -459.34912109 611.07373047 C-465.93221959 630.94772543 -472.05209579 650.9478593 -478.02832031 671.01220703 C-481.39639821 682.31946996 -484.78811901 693.6182939 -488.24609375 704.8984375 C-509.88218944 775.50335804 -529.06617495 846.66343678 -544 919 C-544.41058378 920.97429649 -544.82122699 922.94858062 -545.23193359 924.92285156 C-560.11310276 996.75111717 -570.2739422 1069.71747895 -574 1143 C-574.05784668 1144.06766602 -574.11569336 1145.13533203 -574.17529297 1146.23535156 C-579.03867277 1238.33650846 -574.59775147 1341.93787723 -533 1426 C-532.54367187 1426.92506348 -532.08734375 1427.85012695 -531.6171875 1428.80322266 C-525.82626106 1440.43733322 -519.64058615 1451.62725183 -512.375 1462.40625 C-504.92837639 1473.52281268 -504.92837639 1473.52281268 -506 1479 C-508.47182514 1482.44557444 -509.90974441 1483.82033241 -514.12890625 1484.515625 C-519.56789451 1483.79115835 -522.63009227 1481.2073773 -526.875 1477.875 C-527.70217529 1477.24480957 -528.52935059 1476.61461914 -529.3815918 1475.96533203 C-537.76604725 1469.52805341 -545.92471539 1462.8188155 -554 1456 C-555.20310729 1454.99346842 -556.40623163 1453.98695721 -557.609375 1452.98046875 C-570.87093348 1441.81951131 -583.29223048 1429.79331033 -595.5625 1417.5625 C-596.490625 1416.63904785 -597.41875 1415.7155957 -598.375 1414.76416016 C-603.45845642 1409.66871445 -608.31875332 1404.46496715 -613 1399 C-614.45445517 1397.39231627 -615.91220895 1395.78760285 -617.375 1394.1875 C-622.10571502 1388.93824117 -626.57083694 1383.50441004 -631 1378 C-631.91374442 1376.87864698 -632.82782139 1375.75756489 -633.7421875 1374.63671875 C-655.54968828 1347.79502307 -674.71072174 1318.9306105 -692 1289 C-692.68231689 1287.82002441 -692.68231689 1287.82002441 -693.37841797 1286.61621094 C-696.34145913 1281.45786178 -699.19747678 1276.24710443 -702 1271 C-702.51884766 1270.02933594 -703.03769531 1269.05867188 -703.57226562 1268.05859375 C-744.28002449 1191.52612898 -771.3368688 1108.28773 -793 991 C-793.13128296 990.17469788 -793.26256592 989.34939575 -793.39782715 988.49908447 C-807.89398097 897.01239517 -811.05220796 803.58111156 -785 539 C-784.84809204 538.26557678 -784.69618408 537.53115356 -784.53967285 536.7744751 C-770.15744883 467.51112054 -748.7245082 399.86266818 -718.37304688 335.90185547 C-717.05164558 333.10914996 -715.74980726 330.30815864 -714.453125 327.50390625 C-708.95309853 315.67705196 -702.93305933 304.19815106 -696.57080078 292.81347656 C-694.98433951 289.97195034 -693.41180299 287.12300698 -691.83984375 284.2734375 C-673.41269093 251.06069495 -651.78855597 219.59848969 -628 190 C-627.25492188 189.071875 -626.50984375 188.14375 -625.7421875 187.1875 C-616.35969894 175.61912701 -606.59798609 164.43408339 -596.43505859 153.54833984 C-594.18186608 151.11728388 -591.97120971 148.64776367 -589.75 146.1875 C-585.21653932 141.23951389 -580.54857748 136.44167504 -575.8125 131.6875 C-575.15926758 131.02967529 -574.50603516 130.37185059 -573.83300781 129.6940918 C-569.98144676 125.85465783 -566.01599271 122.20794086 -561.8996582 118.65454102 C-559.09707347 116.21358012 -556.39801804 113.66704603 -553.6875 111.125 C-548.92390952 106.69856961 -544.05931849 102.46475327 -538.984375 98.39453125 C-536.76972458 96.61759315 -534.57507619 94.82504198 -532.390625 93.01171875 C-523.27078805 85.46798022 -513.88328418 78.41140385 -504.22167969 71.57763672 C-502.07823648 70.0555565 -499.94787825 68.51682478 -497.8203125 66.97265625 C-420.03694004 10.81366865 -326.27231328 -22.92732269 -231 -32 C-229.77152344 -32.11988281 -228.54304687 -32.23976563 -227.27734375 -32.36328125 C-223.8518449 -32.6476783 -220.43351231 -32.83552037 -217 -33 C-215.6711377 -33.07347656 -215.6711377 -33.07347656 -214.31542969 -33.1484375 C-144.96024908 -36.88894162 -63.94170233 -30.06869526 0 0 Z " fill="#20E2CF" transform="translate(808,422)"/>
<path d="M0 0 C33.99 0 67.98 0 103 0 C124.89991675 21.96856853 124.89991675 21.96856853 131.08807373 40.54931641 C133.10977236 45.98236932 136.53663494 50.393219 140 55 C141.22599787 56.8206635 142.44037274 58.64919418 143.64453125 60.484375 C147.20295632 65.82244561 150.79225107 71.13927084 154.38671875 76.453125 C167.47859777 95.81131666 180.48144768 115.22019939 193.30892944 134.75476074 C202.27466343 148.40386635 211.34502057 161.97716805 220.5 175.5 C230.8881986 190.84442158 241.14161684 206.2710291 251.3125 221.76025391 C260.27704863 235.40752338 269.34624583 248.97897787 278.5 262.5 C288.8881986 277.84442158 299.14161684 293.2710291 309.3125 308.76025391 C318.27704863 322.40752338 327.34624583 335.97897787 336.5 349.5 C346.27098603 363.93273611 355.93324307 378.43109212 365.5 393 C378.24479311 412.40758584 391.19687606 431.6695492 404.20588684 450.90071106 C411.19071321 461.23149426 418.10767973 471.60729533 425 482 C428.5386252 477.73882003 431.62625077 473.24162251 434.71484375 468.65234375 C435.27357681 467.82529434 435.83230988 466.99824493 436.40797424 466.14613342 C438.25372689 463.41165048 440.09582126 460.67472812 441.9375 457.9375 C442.57703613 456.9885083 443.21657227 456.0395166 443.87548828 455.06176758 C454.12001072 439.85731357 464.24194161 424.57502132 474.30563354 409.25045776 C483.86423533 394.6986742 493.55212412 380.23981774 503.3125 365.82275391 C512.47689097 352.28108245 521.5250735 338.66790396 530.5 325 C540.6583019 309.52993517 550.93724019 294.14806359 561.3125 278.82275391 C570.47689097 265.28108245 579.5250735 251.66790396 588.5 238 C598.6583019 222.52993517 608.93724019 207.14806359 619.3125 191.82275391 C628.47689097 178.28108245 637.5250735 164.66790396 646.5 151 C656.06662467 136.43099966 665.72934182 121.93295833 675.5 107.5 C686.35598436 91.46173203 697.08418558 75.34466351 707.703125 59.1484375 C720.69314225 39.35785633 733.86691823 19.69962265 747 0 C781.32 0 815.64 0 851 0 C851 293.04 851 586.08 851 888 C817.34 888 783.68 888 749 888 C748.67 652.05 748.34 416.1 748 173 C742.06 181.91 736.12 190.82 730 200 C725.04374196 207.30776732 720.08507222 214.61312854 715.10888672 221.90722656 C711.56725199 227.10118682 708.03407678 232.30089565 704.5 237.5 C703.08337339 239.58336057 701.66670674 241.66669392 700.25 243.75 C699.54875 244.78125 698.8475 245.8125 698.125 246.875 C691.75000002 256.24999998 691.75000002 256.24999998 689.62548828 259.37426758 C688.20717621 261.46003021 686.78888197 263.54580497 685.37060547 265.6315918 C681.85425884 270.80285586 678.33761418 275.97391672 674.8203125 281.14453125 C667.37380074 292.09201496 659.93293203 303.04329365 652.5 314 C644.37272956 325.98021389 636.23526205 337.95346246 628.09277344 349.92333984 C624.56125214 355.11515405 621.03067794 360.30761225 617.5 365.5 C616.08333778 367.58333636 614.66667112 369.66666969 613.25 371.75 C612.54875 372.78125 611.8475 373.8125 611.125 374.875 C587.74999998 409.25000003 587.74999998 409.25000003 585.62548828 412.37426758 C584.20717621 414.46003021 582.78888197 416.54580497 581.37060547 418.6315918 C577.85425884 423.80285586 574.33761418 428.97391672 570.8203125 434.14453125 C563.37380074 445.09201496 555.93293203 456.04329365 548.5 467 C540.37272956 478.98021389 532.23526205 490.95346246 524.09277344 502.92333984 C520.56125214 508.11515405 517.03067794 513.30761225 513.5 518.5 C512.08333778 520.58333636 510.66667112 522.66666969 509.25 524.75 C508.54875 525.78125 507.8475 526.8125 507.125 527.875 C500.75 537.25 500.75 537.25 498.62548828 540.37426758 C497.20717621 542.46003021 495.78888197 544.54580497 494.37060547 546.6315918 C490.85425884 551.80285586 487.33761418 556.97391672 483.8203125 562.14453125 C476.77549401 572.50146589 469.73500352 582.86130883 462.70297241 593.22692871 C461.5057079 594.99158708 460.30819475 596.75607646 459.1105957 598.52050781 C458.31721371 599.68944882 457.52383804 600.85839412 456.73046875 602.02734375 C456.33908218 602.60400787 455.94769562 603.180672 455.54444885 603.77481079 C453.18184869 607.25647002 450.82165705 610.73974761 448.46328735 614.22427368 C447.31341543 615.92274436 446.16272195 617.62065517 445.01171875 619.31835938 C443.60009213 621.40069669 442.18981695 623.48395117 440.78125 625.56835938 C439.50388947 627.45112224 438.21851041 629.32847541 436.92431641 631.19970703 C435.57223025 633.16728229 434.24874232 635.15466787 432.94677734 637.15576172 C431.92704834 638.67000732 431.92704834 638.67000732 430.88671875 640.21484375 C430.28432373 641.13257568 429.68192871 642.05030762 429.0612793 642.99584961 C427 645 427 645 423.99902344 645.59667969 C421 645 421 645 418.94750977 643.0090332 C418.34737061 642.09468506 417.74723145 641.18033691 417.12890625 640.23828125 C416.44973145 639.22975098 415.77055664 638.2212207 415.07080078 637.18212891 C414.38743652 636.13202637 413.70407227 635.08192383 413 634 C411.67847091 632.0749737 410.35426717 630.15178071 409.02734375 628.23046875 C407.66229425 626.2173437 406.29907205 624.20297863 404.9375 622.1875 C403.81788129 620.53557737 402.69825938 618.8836569 401.57836914 617.23191833 C400.44646969 615.56215701 399.31526935 613.8919235 398.18408203 612.22167969 C394.92364535 607.41229869 391.64995079 602.61200433 388.375 597.8125 C387.14061526 596.00261081 385.90624024 594.19271499 384.671875 592.3828125 C383.44793728 590.58852761 382.22397899 588.79425674 381 587 C372.43731085 574.4477725 363.88308804 561.88986605 355.34082031 549.32373047 C348.8502954 539.7770162 342.34809177 530.23829774 335.84277344 520.70166016 C332.72783713 516.13490272 329.61397822 511.56741076 326.5 507 C325.25000505 505.16666322 324.00000505 503.33332989 322.75 501.5 C315.25 490.5 307.75 479.5 300.25 468.5 C299.63141113 467.5927417 299.01282227 466.6854834 298.37548828 465.75073242 C297.12384048 463.91497145 295.87221292 462.07919668 294.62060547 460.2434082 C291.52098153 455.69710508 288.42102131 451.15103204 285.3203125 446.60546875 C277.98486666 435.85095917 270.65938587 425.08973429 263.34082031 414.32373047 C256.8502954 404.7770162 250.34809177 395.23829774 243.84277344 385.70166016 C240.72783713 381.13490272 237.61397822 376.56741076 234.5 372 C233.25000505 370.16666322 232.00000505 368.33332989 230.75 366.5 C218.25 348.16666667 205.75 329.83333333 193.25 311.5 C192.63141113 310.5927417 192.01282227 309.6854834 191.37548828 308.75073242 C190.12384048 306.91497145 188.87221292 305.07919668 187.62060547 303.2434082 C184.52098153 298.69710508 181.42102131 294.15103204 178.3203125 289.60546875 C170.98486666 278.85095917 163.65938587 268.08973429 156.34082031 257.32373047 C149.8502954 247.7770162 143.34809177 238.23829774 136.84277344 228.70166016 C134.35366805 225.05242324 131.86526293 221.40270912 129.37695312 217.75292969 C128.13358462 215.92927942 126.89009659 214.10571064 125.64648438 212.28222656 C122.39472544 207.51400592 119.14507346 202.74436684 115.8984375 197.97265625 C114.88813477 196.48862305 114.88813477 196.48862305 113.85742188 194.97460938 C112.57422224 193.08963336 111.29163003 191.20424365 110.00976562 189.31835938 C109.42646484 188.46177734 108.84316406 187.60519531 108.2421875 186.72265625 C107.7354248 185.97765869 107.22866211 185.23266113 106.70654297 184.46508789 C104.50560098 181.2858445 102.24750118 178.14650165 100 175 C99.67 410.29 99.34 645.58 99 888 C66.33 888 33.66 888 0 888 C0 594.96 0 301.92 0 0 Z " fill="#FFFFFF" transform="translate(2196,2142)"/>
<path d="M0 0 C2.21200454 0.01192931 4.423981 0.01888753 6.63600922 0.02481461 C27.89931892 0.09083069 48.94999442 0.50557777 70.04866791 3.38672256 C71.41643865 3.56595169 72.78427964 3.74464536 74.15218353 3.92285538 C119.12848213 9.85259218 161.70581768 21.69165456 203.04866791 40.38672256 C203.86931732 40.75378311 204.68996674 41.12084366 205.53548431 41.49902725 C219.18317241 47.62884977 232.13251402 54.85211276 245.04866791 62.38672256 C245.92732513 62.89638565 246.80598236 63.40604874 247.71126556 63.93115616 C269.94165207 76.8648161 290.50825189 91.95790694 311.04866791 107.38672256 C309.55651469 112.01933779 306.87102431 115.33456382 303.79866791 119.01172256 C299.12524424 124.72636798 294.64938108 130.54791406 290.29866791 136.51172256 C285.24857792 143.42478159 280.12359396 150.2730809 274.92366791 157.07422256 C269.98405548 163.53637543 265.0557924 170.00597987 260.17366791 176.51172256 C259.67979584 177.16874161 259.18592377 177.82576065 258.67708588 178.50268936 C256.73509414 181.09466372 254.84572901 183.69113091 253.04866791 186.38672256 C250.0036948 184.97277056 247.44387378 183.29407439 244.77523041 181.26172256 C243.95772308 180.6426503 243.14021576 180.02357803 242.29793549 179.385746 C241.43192719 178.72606827 240.56591888 178.06639053 239.67366791 177.38672256 C237.85807112 176.01585817 236.0416622 174.64606873 234.22444916 173.27734756 C232.89341156 172.27477921 232.89341156 172.27477921 231.53548431 171.25195694 C201.79507482 148.94518996 169.49136095 130.41004452 135.04866791 116.38672256 C134.2560556 116.06365128 133.4634433 115.74057999 132.64681244 115.40771866 C106.71529054 105.0029244 79.52365837 98.97637007 52.04866791 94.38672256 C50.89624603 94.19175186 49.74382416 93.99678116 48.55648041 93.79590225 C31.727499 91.10593976 14.79942701 91.08618964 -2.20133209 91.01172256 C-3.29622955 91.00359543 -4.39112701 90.99546829 -5.51920319 90.98709488 C-25.45386525 90.87630939 -45.31919239 92.16475267 -64.70133209 97.13672256 C-66.25014069 97.52513321 -66.25014069 97.52513321 -67.83023834 97.92139053 C-111.7681644 109.2512534 -151.6955356 132.08398785 -175.76383209 171.38672256 C-194.30105608 204.61215268 -195.7778254 243.90194587 -185.66324615 280.00635147 C-175.59088856 313.68450188 -149.9050081 336.91603115 -119.95133209 353.38672256 C-114.69322637 356.21185395 -109.34502916 358.83188106 -103.95133209 361.38672256 C-103.29954987 361.69932022 -102.64776764 362.01191788 -101.97623444 362.33398819 C-56.21314958 384.11626953 -5.5909116 395.34116565 43.62468719 406.19995499 C101.40280077 418.95276909 158.29703377 435.16093788 211.100914 462.39062881 C213.04989388 463.38734954 215.01082096 464.3567362 216.97444916 465.32422256 C240.14957846 476.93983069 261.32490724 492.52472494 280.04866791 510.38672256 C280.90073822 511.18594131 281.75280853 511.98516006 282.63069916 512.80859756 C317.73123088 546.63777144 336.290808 597.25901398 337.3126297 645.46416092 C337.37557676 650.3136929 337.37919578 655.16187861 337.36116791 660.01172256 C337.35843369 661.53708633 337.35843369 661.53708633 337.35564423 663.09326553 C337.31141451 677.73776871 336.96087943 691.9890469 334.04866791 706.38672256 C333.79923431 707.70325821 333.79923431 707.70325821 333.54476166 709.04639053 C321.80523128 770.10281843 285.70989799 823.98031851 234.45760345 858.97998428 C187.4248822 890.52282695 133.08323251 906.75891792 77.04866791 912.38672256 C76.17994049 912.47405151 75.31121307 912.56138046 74.41616058 912.65135574 C66.42003034 913.38721501 58.47795874 913.56254864 50.45101166 913.58984756 C49.06115942 913.5968642 47.67130754 913.60395106 46.28145599 913.61110306 C41.8496888 913.63056592 37.4179735 913.63553835 32.98616791 913.63672256 C31.85494947 913.63738535 31.85494947 913.63738535 30.70087814 913.63806152 C8.01569847 913.6450395 -14.4253715 913.34629604 -36.95133209 910.38672256 C-38.36762221 910.20760766 -39.7839651 910.0289097 -41.20035553 909.85058975 C-91.24736244 903.47009068 -140.05384157 890.41656283 -185.95133209 869.38672256 C-187.02850494 868.89558975 -188.1056778 868.40445694 -189.21549225 867.89844131 C-233.85435841 847.40093379 -274.33966466 819.82475772 -311.95133209 788.38672256 C-312.64613678 787.80696671 -313.34094147 787.22721085 -314.05680084 786.62988663 C-316.15497283 784.8709 -318.24260207 783.1002827 -320.32633209 781.32422256 C-320.96361237 780.78773087 -321.60089264 780.25123917 -322.25748444 779.69849014 C-327.62655646 775.06959883 -327.62655646 775.06959883 -328.95133209 771.38672256 C-323.53790193 764.68828625 -318.01584551 758.10222058 -312.39347076 751.57934952 C-309.38084294 748.07663827 -306.42168887 744.54002552 -303.51383209 740.94922256 C-299.91496673 736.51432314 -296.20389671 732.19115077 -292.45133209 727.88672256 C-287.16138674 721.816131 -282.01426607 715.6485298 -276.95133209 709.38672256 C-275.26640213 707.32210858 -273.57748476 705.26079697 -271.88883209 703.19922256 C-271.13473053 702.27754288 -270.38062897 701.35586319 -269.60367584 700.40625381 C-269.0584024 699.7398085 -268.51312897 699.07336319 -267.95133209 698.38672256 C-262.98052672 699.87703852 -260.12179202 702.78641882 -256.51383209 706.32422256 C-250.21968122 712.33065033 -243.63113406 717.71859611 -236.73111725 723.00537491 C-234.30590577 724.88765839 -231.92851516 726.82626931 -229.54727936 728.76367569 C-165.43506422 780.79284539 -89.38932408 814.12249308 -6.95133209 821.38672256 C-5.98120682 821.47291855 -5.01108154 821.55911453 -4.01155853 821.64792252 C3.71184061 822.29061679 11.37835126 822.56052846 19.12679291 822.58984756 C20.33647736 822.59554764 21.5461618 822.60124771 22.79250336 822.60712051 C25.34044795 822.61650408 27.88840431 822.62307778 30.43636322 822.62695694 C34.24746364 822.6365931 38.05800755 822.66765354 41.86898041 822.69922256 C98.4302861 822.94372323 155.3642281 808.34542799 196.60335541 767.85058975 C222.22564661 741.89936373 234.17061301 707.55463023 234.42366791 671.44922256 C234.18417763 640.70311545 226.94441523 612.2145686 207.04866791 588.38672256 C206.21335541 587.34064835 206.21335541 587.34064835 205.36116791 586.27344131 C194.67646311 573.17887103 179.60215738 563.62873026 165.04866791 555.38672256 C163.93620697 554.74219131 162.82374603 554.09766006 161.67757416 553.43359756 C112.89129248 526.18859122 54.80484107 514.13562336 0.76589203 502.01053238 C-79.47661588 484.00296696 -171.84692667 462.359572 -232.42301178 402.87988663 C-233.9898817 401.34905972 -235.58183213 399.84797792 -237.17789459 398.34766006 C-271.16297445 365.94976761 -288.65243229 320.52491463 -292.95133209 274.38672256 C-293.06219147 273.28973038 -293.17305084 272.19273819 -293.28726959 271.06250381 C-298.39391468 210.54185862 -284.26218652 149.71492231 -244.95133209 102.38672256 C-242.67426849 99.76510329 -240.36534814 97.18418362 -238.00992584 94.63281631 C-236.21754247 92.67717981 -234.52093266 90.67627999 -232.82633209 88.63672256 C-176.27090494 24.16872418 -82.5031518 -0.47489081 0 0 Z " fill="#FFFFFF" transform="translate(3566.951332092285,2129.6132774353027)"/>
<path d="M0 0 C210.87 0 421.74 0 639 0 C639 30.69 639 61.38 639 93 C461.46 93 283.92 93 101 93 C101 197.61 101 302.22 101 410 C259.73 410 418.46 410 582 410 C582 440.03 582 470.06 582 501 C423.27 501 264.54 501 101 501 C101 628.71 101 756.42 101 888 C67.67 888 34.34 888 0 888 C0 594.96 0 301.92 0 0 Z " fill="#FFFFFF" transform="translate(210,2142)"/>
<path d="M0 0 C33.33 0 66.66 0 101 0 C101 262.35 101 524.7 101 795 C266 795 431 795 601 795 C601 825.69 601 856.38 601 888 C402.67 888 204.34 888 0 888 C0 594.96 0 301.92 0 0 Z " fill="#FFFFFF" transform="translate(1411,2142)"/>
<path d="M0 0 C0.72960938 -0.02835938 1.45921875 -0.05671875 2.2109375 -0.0859375 C8.87498532 1.18648587 12.7987643 6.58376824 16.75 11.625 C17.31203125 12.32882812 17.8740625 13.03265625 18.453125 13.7578125 C22.78034169 19.21049362 26.95619849 24.77255982 31.09960938 30.36547852 C35.21646297 35.89902204 39.53289261 41.24924755 43.90576172 46.58154297 C48.09830978 51.70101063 52.15346638 56.90825725 56.16796875 62.16796875 C58.76902636 65.57354197 61.41196242 68.9453615 64.0625 72.3125 C64.75243042 73.18914307 64.75243042 73.18914307 65.45629883 74.08349609 C66.8454271 75.84767685 68.23517398 77.6113689 69.625 79.375 C76.25452832 87.79202036 82.85261923 96.23261347 89.42626953 104.69335938 C94.36158931 111.04283028 99.32350748 117.37091836 104.29833984 123.68945312 C106.57586206 126.58308827 108.85024007 129.47919323 111.125 132.375 C112.0416523 133.54167796 112.95831895 134.70834464 113.875 135.875 C119.375 142.875 124.875 149.875 130.375 156.875 C130.8285083 157.45217773 131.2820166 158.02935547 131.74926758 158.62402344 C132.66843313 159.79390016 133.58754095 160.96382223 134.5065918 162.13378906 C136.75956094 165.00171157 139.01343723 167.8689099 141.26953125 170.734375 C147.01452887 178.03390138 152.72703617 185.358049 158.42626953 192.69335938 C163.36158931 199.04283028 168.32350748 205.37091836 173.29833984 211.68945312 C176.03302997 215.16392877 178.76416825 218.64120135 181.49414062 222.11938477 C183.81688597 225.07790296 186.1442787 228.03255216 188.48046875 230.98046875 C190.78431701 233.88930425 193.07154449 236.81052082 195.34814453 239.74072266 C196.57337602 241.30892526 197.81563874 242.86377621 199.05859375 244.41796875 C203.20747485 249.77971348 205.97044063 253.46618733 205.625 260.375 C204.03342626 265.68024579 202.2766958 268.42338379 197.625 271.375 C193.76362829 272.63511627 189.82592398 273.45130337 185.85375977 274.28540039 C184.65759726 274.54811422 183.46143475 274.81082806 182.22902489 275.08150291 C178.93401052 275.80237413 175.63676428 276.51078629 172.33796763 277.21400714 C168.80063036 277.97126884 165.26680241 278.74458007 161.7325592 279.51612854 C155.73606806 280.82310444 149.73759424 282.12059767 143.73760986 283.41143799 C135.69250638 285.14249258 127.65111937 286.89021603 119.61109841 288.64470947 C107.16503459 291.36055562 94.71667794 294.06570076 82.26635742 296.76196289 C81.13387957 297.00721484 81.13387957 297.00721484 79.97852337 297.25742137 C76.88619142 297.92708069 73.79385417 298.59671553 70.7015087 299.26631242 C55.69319263 302.51632693 40.68623697 305.77262208 25.67917657 309.02842879 C23.10812397 309.58620891 20.53705972 310.14393531 17.96599388 310.70165443 C-16.86844719 318.25828838 -51.69418002 325.85454878 -86.51726532 333.46331787 C-98.11059853 335.9963856 -109.70403233 338.52899303 -121.29751396 341.06138134 C-122.75428298 341.3795868 -124.21105102 341.69779676 -125.66781807 342.01601124 C-161.16296653 349.76946308 -196.6627593 357.50156911 -232.16355234 365.22912985 C-236.96025743 366.2732426 -241.75694449 367.31743815 -246.55360967 368.36173421 C-248.87609001 368.86736357 -251.19857631 369.3729655 -253.5210638 369.87856197 C-256.53756031 370.53524198 -259.55403495 371.19202233 -262.57049656 371.84886265 C-269.68811276 373.39855335 -276.80613284 374.94634258 -283.92512512 376.48970032 C-299.74269208 379.91728605 -299.74269208 379.91728605 -315.54181385 383.42868328 C-319.0236673 384.21280278 -322.50726084 384.98901421 -325.99099541 385.76472664 C-328.18878409 386.25825232 -330.38316488 386.76509428 -332.57765198 387.27305603 C-350.81621 391.32876714 -350.81621 391.32876714 -358.875 387.875 C-363.06648655 383.68351345 -365.10147501 379.64134993 -365.8125 373.75 C-364.74584337 365.52150602 -359.32631524 360.99049491 -353.625 355.5 C-352.04441494 353.96346403 -350.46626096 352.4244231 -348.890625 350.8828125 C-348.19227539 350.20879395 -347.49392578 349.53477539 -346.77441406 348.84033203 C-344.81111477 346.82309594 -342.97436802 344.77525566 -341.13964844 342.64404297 C-337.17113316 338.07263371 -332.92695594 333.8182803 -328.625 329.5625 C-327.80805664 328.74934326 -326.99111328 327.93618652 -326.14941406 327.09838867 C-322.68804958 323.6532266 -319.22071409 320.2140971 -315.75390625 316.77441406 C-313.20884812 314.24753492 -310.66686869 311.71758685 -308.125 309.1875 C-306.96532715 308.04027466 -306.96532715 308.04027466 -305.78222656 306.86987305 C-301.73038474 302.83617512 -297.88375158 298.7095945 -294.15356445 294.37841797 C-290.87785606 290.6885809 -287.35072427 287.24948564 -283.84375 283.78125 C-283.04900269 282.99028931 -282.25425537 282.19932861 -281.4354248 281.38439941 C-278.06964452 278.03481427 -274.69788952 274.6912673 -271.32666016 271.34716797 C-268.85109773 268.88979061 -266.37861917 266.42933942 -263.90625 263.96875 C-263.15500854 263.22580688 -262.40376709 262.48286377 -261.62976074 261.71740723 C-258.26283807 258.36598204 -254.98942129 254.98899879 -251.88867188 251.38867188 C-248.01495705 246.89311009 -243.84197011 242.73420667 -239.625 238.5625 C-238.80805664 237.74934326 -237.99111328 236.93618652 -237.14941406 236.09838867 C-233.68804958 232.6532266 -230.22071409 229.2140971 -226.75390625 225.77441406 C-224.20884812 223.24753492 -221.66686869 220.71758685 -219.125 218.1875 C-218.35188477 217.42268311 -217.57876953 216.65786621 -216.78222656 215.86987305 C-212.73038474 211.83617512 -208.88375158 207.7095945 -205.15356445 203.37841797 C-201.87785606 199.6885809 -198.35072427 196.24948564 -194.84375 192.78125 C-194.04900269 191.99028931 -193.25425537 191.19932861 -192.4354248 190.38439941 C-189.06964452 187.03481427 -185.69788952 183.6912673 -182.32666016 180.34716797 C-179.85109773 177.88979061 -177.37861917 175.42933942 -174.90625 172.96875 C-174.15500854 172.22580688 -173.40376709 171.48286377 -172.62976074 170.71740723 C-169.26283807 167.36598204 -165.98942129 163.98899879 -162.88867188 160.38867188 C-159.01495705 155.89311009 -154.84197011 151.73420667 -150.625 147.5625 C-149.39958496 146.34276489 -149.39958496 146.34276489 -148.14941406 145.09838867 C-144.68804958 141.6532266 -141.22071409 138.2140971 -137.75390625 134.77441406 C-135.20884812 132.24753492 -132.66686869 129.71758685 -130.125 127.1875 C-129.35188477 126.42268311 -128.57876953 125.65786621 -127.78222656 124.86987305 C-124.36015145 121.46312178 -121.02679989 118.0345298 -117.875 114.375 C-114.00655795 109.88338267 -109.83739067 105.72967639 -105.625 101.5625 C-104.80805664 100.74934326 -103.99111328 99.93618652 -103.14941406 99.09838867 C-99.68804958 95.6532266 -96.22071409 92.2140971 -92.75390625 88.77441406 C-90.20884812 86.24753492 -87.66686869 83.71758685 -85.125 81.1875 C-84.35188477 80.42268311 -83.57876953 79.65786621 -82.78222656 78.86987305 C-78.73038474 74.83617512 -74.88375158 70.7095945 -71.15356445 66.37841797 C-67.87785606 62.6885809 -64.35072427 59.24948564 -60.84375 55.78125 C-60.04900269 54.99028931 -59.25425537 54.19932861 -58.4354248 53.38439941 C-55.06964452 50.03481427 -51.69788952 46.6912673 -48.32666016 43.34716797 C-45.85109773 40.88979061 -43.37861917 38.42933942 -40.90625 35.96875 C-40.15500854 35.22580688 -39.40376709 34.48286377 -38.62976074 33.71740723 C-34.54792401 29.65435863 -30.65801033 25.49456038 -26.89938354 21.13092041 C-23.67441067 17.41611011 -20.1627259 13.97827702 -16.6875 10.5 C-15.94177734 9.74203125 -15.19605469 8.9840625 -14.42773438 8.203125 C-13.70521484 7.47867187 -12.98269531 6.75421875 -12.23828125 6.0078125 C-11.59157471 5.35699707 -10.94486816 4.70618164 -10.27856445 4.03564453 C-7.0441439 1.21397869 -4.27621727 0.07502136 0 0 Z " fill="#20E2CF" transform="translate(1295.375,-0.375)"/>
<path d="M0 0 C33.33 0 66.66 0 101 0 C101 293.04 101 586.08 101 888 C67.67 888 34.34 888 0 888 C0 594.96 0 301.92 0 0 Z " fill="#FFFFFF" transform="translate(1051,2142)"/>
</svg>
